<svg width="216" height="259" viewBox="0 0 216 259" fill="none" xmlns="http://www.w3.org/2000/svg">
<path d="M-4.53 258.4C-4.68 257.66 -4.81 257.01 -5 256.06C0.91 254.95 6.68 253.61 12.52 252.85C21.51 251.68 30.56 250.91 39.58 249.99C47.93 249.14 56.29 248.38 64.63 247.48C75.63 246.29 86.7 245.65 97.57 243.41C110.43 240.75 122.51 236.23 132.95 228.03C142.5 220.52 149.47 210.95 154.05 199.82C157.62 191.16 160.49 182.21 163.52 173.34C166.8 163.75 169.68 154.01 173.14 144.49C176.62 134.92 181.86 126.19 187.06 117.48C193.9 106.02 200.69 94.54 206.15 82.34C208.68 76.69 210.99 70.94 212.25 64.85C214.79 52.55 212.6 41.04 206.36 30.23C203.12 24.62 199.13 19.57 194.51 15.06C187.62 8.33 180.59 1.75 173.61 -4.89C172.47 -5.97 171.41 -7.08 171.13 -9C172.3 -8.54 173.73 -8.35 174.61 -7.56C181.14 -1.73 187.73 4.05 193.96 10.18C200.53 16.65 206.24 23.86 210.34 32.21C216.5 44.78 217.23 57.79 213.54 71.18C211.48 78.66 208.03 85.55 204.55 92.43C200.34 100.75 195.36 108.61 190.44 116.51C182.27 129.62 176.17 143.73 171.23 158.33C167.85 168.31 164.88 178.42 161.59 188.43C158.22 198.69 153.72 208.41 147.23 217.12C137.79 229.8 125.32 238.16 110.36 242.98C102.15 245.63 93.7 247.17 85.14 248C71.86 249.29 58.54 250.28 45.27 251.7C34.79 252.83 24.35 254.39 13.9 255.81C8.32 256.57 2.76 257.46 -2.82 258.27C-3.34 258.32 -3.89 258.34 -4.53 258.4Z" fill="white"/>
<path d="M-4.59 235.54C-0.32 234.71 3.87 233.9 8.06 233.08C23.42 230.05 38.84 227.32 54.11 223.91C75.8 219.07 95.01 209.25 111.17 193.82C120.53 184.89 128.15 174.62 134.38 163.3C147.57 139.33 160.64 115.31 172.77 90.77C176.26 83.7 179.57 76.59 181.31 68.84C184.99 52.48 182.16 37.21 173.76 22.84C169.61 15.75 164.22 9.64 158.78 3.56C155.55 -0.0399995 152.49 -3.78 149.36 -7.47C149.11 -7.77 148.89 -8.1 148.66 -8.41C148.72 -8.52 148.78 -8.64 148.84 -8.75C149.78 -8.35 150.93 -8.18 151.61 -7.52C160.78 1.38 169.5 10.67 176 21.8C180.45 29.42 183.7 37.48 184.97 46.28C186.4 56.17 185.53 65.89 182.09 75.21C179.48 82.27 176.35 89.17 173.05 95.94C162.24 118.13 150.67 139.94 138.19 161.24C132.59 170.79 126.76 180.21 119.57 188.69C106.04 204.65 89.21 215.79 69.28 221.96C60.03 224.82 50.54 226.97 41.06 228.99C27.16 231.96 13.17 234.52 -0.78 237.25C-1.4 237.37 -2.05 237.39 -2.68 237.38C-4.36 237.35 -4.36 237.34 -4.59 235.54Z" fill="white"/>
</svg>
